<?xml version="1.0" encoding="UTF-8" standalone="no"?>
<svg
   viewBox="0 0 512 512"
   version="1.1"
   id="svg44"
   sodipodi:docname="burger-solid.svg"
   inkscape:version="1.2.1 (9c6d41e410, 2022-07-14, custom)"
   xmlns:inkscape="http://www.inkscape.org/namespaces/inkscape"
   xmlns:sodipodi="http://sodipodi.sourceforge.net/DTD/sodipodi-0.dtd"
   xmlns="http://www.w3.org/2000/svg"
   xmlns:svg="http://www.w3.org/2000/svg">
  <defs
     id="defs48" />
  <sodipodi:namedview
     id="namedview46"
     pagecolor="#ffffff"
     bordercolor="#000000"
     borderopacity="0.25"
     inkscape:showpageshadow="2"
     inkscape:pageopacity="0.0"
     inkscape:pagecheckerboard="0"
     inkscape:deskcolor="#d1d1d1"
     showgrid="false"
     inkscape:zoom="1.1370348"
     inkscape:cx="177.65508"
     inkscape:cy="247.57379"
     inkscape:window-width="1910"
     inkscape:window-height="1026"
     inkscape:window-x="4"
     inkscape:window-y="4"
     inkscape:window-maximized="1"
     inkscape:current-layer="svg44" />
  <!--! Font Awesome Pro 6.2.1 by @fontawesome - https://fontawesome.com License - https://fontawesome.com/license (Commercial License) Copyright 2022 Fonticons, Inc. -->
  <path
     d="M 61.1,224 C 45,224 32,211 32,194.9 32,193 32.2,191.2 32.6,189.3 37.9,168.3 78.8,32 256,32 c 177.2,0 218.1,136.3 223.4,157.3 0.5,1.9 0.6,3.7 0.6,5.6 0,16.1 -13,29.1 -29.1,29.1 z M 144,128 c 0,-8.8 -7.2,-16 -16,-16 -8.8,0 -16,7.2 -16,16 0,8.8 7.2,16 16,16 8.8,0 16,-7.2 16,-16 z m 240,16 c 8.8,0 16,-7.2 16,-16 0,-8.8 -7.2,-16 -16,-16 -8.8,0 -16,7.2 -16,16 0,8.8 7.2,16 16,16 z M 272,96 c 0,-8.8 -7.2,-16 -16,-16 -8.8,0 -16,7.2 -16,16 0,8.8 7.2,16 16,16 8.8,0 16,-7.2 16,-16 z M 32,400 c 0,-8.8 7.2,-16 16,-16 h 416 c 8.8,0 16,7.2 16,16 v 16 c 0,35.3 -28.7,64 -64,64 H 96 C 60.7,480 32,451.3 32,416 Z"
     id="path42"
     sodipodi:nodetypes="sscscsssssssssssssssssssssssssss"
     style="fill:#d38d5f" />
  <path
     d="m 16,304 c 0,-26.5 21.5,-48 48,-48 h 384 c 26.5,0 48,21.5 48,48 0,26.5 -21.5,48 -48,48 H 64 C 37.5,352 16,330.5 16,304 Z"
     id="path42-6"
     sodipodi:nodetypes="sssssss"
     style="fill:#784421" />
</svg>
