<?xml version="1.0" encoding="UTF-8" standalone="no"?>
<svg
   xmlns:dc="http://purl.org/dc/elements/1.1/"
   xmlns:cc="http://creativecommons.org/ns#"
   xmlns:rdf="http://www.w3.org/1999/02/22-rdf-syntax-ns#"
   xmlns:svg="http://www.w3.org/2000/svg"
   xmlns="http://www.w3.org/2000/svg"
   xmlns:sodipodi="http://sodipodi.sourceforge.net/DTD/sodipodi-0.dtd"
   xmlns:inkscape="http://www.inkscape.org/namespaces/inkscape"
   width="81.866783mm"
   height="46.664238mm"
   viewBox="0 0 232.06332 132.27658"
   fill-rule="evenodd"
   version="1.1"
   id="svg134"
   sodipodi:docname="UtbultDesign_White.svg"
   inkscape:version="1.0.1 (3bc2e813f5, 2020-09-07)">
  <metadata
     id="metadata140">
    <rdf:RDF>
      <cc:Work
         rdf:about="">
        <dc:format>image/svg+xml</dc:format>
        <dc:type
           rdf:resource="http://purl.org/dc/dcmitype/StillImage" />
        <dc:title></dc:title>
      </cc:Work>
    </rdf:RDF>
  </metadata>
  <defs
     id="defs138" />
  <sodipodi:namedview
     pagecolor="#ffffff"
     bordercolor="#666666"
     borderopacity="1"
     objecttolerance="10"
     gridtolerance="10"
     guidetolerance="10"
     inkscape:pageopacity="0"
     inkscape:pageshadow="2"
     inkscape:window-width="1366"
     inkscape:window-height="703"
     id="namedview136"
     showgrid="false"
     inkscape:zoom="0.59120415"
     inkscape:cx="208.1639"
     inkscape:cy="-187.08769"
     inkscape:window-x="0"
     inkscape:window-y="0"
     inkscape:window-maximized="0"
     inkscape:current-layer="g935"
     showguides="true"
     inkscape:guide-bbox="true"
     inkscape:document-rotation="0"
     units="mm">
    <sodipodi:guide
       position="-334.29587,309.16566"
       orientation="1,0"
       id="guide1963"
       inkscape:locked="false" />
    <sodipodi:guide
       position="-229.65901,452.50628"
       orientation="1,0"
       id="guide72" />
    <sodipodi:guide
       position="-193.22183,432.73267"
       orientation="1,0"
       id="guide74" />
  </sodipodi:namedview>
  <g
     inkscape:groupmode="layer"
     id="layer4"
     inkscape:label="Back"
     transform="translate(-183.43596,-560.44602)" />
  <g
     inkscape:groupmode="layer"
     id="layer3"
     inkscape:label="Logo"
     style="display:inline"
     transform="translate(-183.43596,-560.44602)">
    <g
       id="g132"
       transform="matrix(-47.551777,0,0,-47.551777,311.39507,40584.429)"
       style="fill:none;stroke:#000000;stroke-width:0.0473168;stroke-miterlimit:4;stroke-dasharray:none;stroke-opacity:1">
      <g
         id="g935"
         style="fill:#000000">
        <text
           xml:space="preserve"
           style="font-style:normal;font-variant:normal;font-weight:500;font-stretch:normal;font-size:0.630891px;line-height:1.25;font-family:Oswald;-inkscape-font-specification:'Oswald Medium';stroke-width:0.00074629"
           x="-2.1364267"
           y="-841.078"
           id="text34"
           transform="scale(-1)"><tspan
             sodipodi:role="line"
             id="tspan32"
             x="-2.1364267"
             y="-841.078"
             style="font-style:normal;font-variant:normal;font-weight:500;font-stretch:normal;font-family:Oswald;-inkscape-font-specification:'Oswald Medium';stroke-width:0.00074629" /><tspan
             sodipodi:role="line"
             x="-2.1364267"
             y="-840.28937"
             style="font-style:normal;font-variant:normal;font-weight:500;font-stretch:normal;font-family:Oswald;-inkscape-font-specification:'Oswald Medium';stroke-width:0.00074629"
             id="tspan36" /></text>
        <g
           id="g90"
           transform="matrix(2.096843,0,0,2.096843,-1.0379791,-922.33463)"
           style="fill:#ffffff;stroke:#ffffff;stroke-width:0.0225658;stroke-miterlimit:4;stroke-dasharray:none;stroke-opacity:1;fill-opacity:1">
          <g
             aria-label="UTBULT"
             transform="rotate(180,0.02879767,0.02286817)"
             id="text40"
             style="font-size:0.841188px;line-height:1.25;font-family:Oswald;-inkscape-font-specification:Oswald;fill:#ffffff;stroke:#ffffff;stroke-width:0.0225658;stroke-miterlimit:4;stroke-dasharray:none;stroke-opacity:1;fill-opacity:1">
            <path
               d="m -1.5277759,-840.53174 q -0.074024,0 -0.1135604,-0.0294 -0.039536,-0.0294 -0.053836,-0.0824 -0.0143,-0.0538 -0.0143,-0.12534 v -0.45172 h 0.090848 v 0.45592 q 0,0.0438 0.00589,0.0799 0.00589,0.0362 0.025236,0.0572 0.020189,0.021 0.059724,0.021 0.040377,0 0.059724,-0.021 0.019347,-0.021 0.025236,-0.0572 0.00589,-0.0362 0.00589,-0.0799 v -0.45592 h 0.090007 v 0.45172 q 0,0.0715 -0.0143,0.12534 -0.0143,0.053 -0.053836,0.0824 -0.038695,0.0294 -0.1127192,0.0294 z"
               style="font-size:0.841188px;fill:#ffffff;stroke:#ffffff;stroke-width:0.0225658;stroke-miterlimit:4;stroke-dasharray:none;stroke-opacity:1;fill-opacity:1"
               id="path46" />
            <path
               d="m -1.171954,-840.53931 v -0.6107 h -0.1152427 v -0.0707 h 0.32217498 v 0.0707 H -1.0768997 v 0.6107 z"
               style="font-size:0.841188px;fill:#ffffff;stroke:#ffffff;stroke-width:0.0225658;stroke-miterlimit:4;stroke-dasharray:none;stroke-opacity:1;fill-opacity:1"
               id="path48" />
            <path
               d="m -0.89941061,-840.53931 v -0.68136 h 0.15646097 q 0.0462653,0 0.0799129,0.0101 0.0344887,0.0101 0.0572008,0.0311 0.0227121,0.021 0.0336475,0.0538 0.0109354,0.032 0.0109354,0.0757 0,0.0421 -0.0109354,0.0732 -0.0100943,0.0303 -0.0319652,0.0479 -0.0210297,0.0177 -0.0546772,0.0227 0.0412182,0.009 0.0664539,0.032 0.0252356,0.0219 0.0370123,0.0572 0.0126178,0.0345 0.0126178,0.0833 0,0.0437 -0.0100943,0.0799 -0.0100942,0.0362 -0.0319651,0.0614 -0.0210297,0.0252 -0.0546772,0.0395 -0.0328063,0.0135 -0.0782305,0.0135 z m 0.0950543,-0.0681 h 0.0639303 q 0.0639303,0 0.08496,-0.0294 0.0218709,-0.0303 0.0218709,-0.0967 0,-0.0429 -0.0117766,-0.0715 -0.0109354,-0.0294 -0.0361711,-0.0437 -0.0243944,-0.0152 -0.0664539,-0.0152 h -0.0563596 z m 0,-0.32891 h 0.0563596 q 0.040377,0 0.0630891,-0.0109 0.0227121,-0.0118 0.0319651,-0.037 0.009253,-0.0252 0.009253,-0.0656 0,-0.0471 -0.0143002,-0.0681 -0.0143002,-0.021 -0.044583,-0.0261 -0.0302828,-0.006 -0.0790717,-0.006 h -0.0227121 z"
               style="font-size:0.841188px;fill:#ffffff;stroke:#ffffff;stroke-width:0.0225658;stroke-miterlimit:4;stroke-dasharray:none;stroke-opacity:1;fill-opacity:1"
               id="path50" />
            <path
               d="m -0.2828212,-840.53174 q -0.0740245,0 -0.11356038,-0.0294 -0.0395358,-0.0294 -0.053836,-0.0824 -0.0143002,-0.0538 -0.0143002,-0.12534 v -0.45172 h 0.0908483 v 0.45592 q 0,0.0438 0.005888,0.0799 0.005888,0.0362 0.0252356,0.0572 0.0201885,0.021 0.0597243,0.021 0.040377,0 0.0597243,-0.021 0.0193473,-0.021 0.0252356,-0.0572 0.005888,-0.0362 0.005888,-0.0799 v -0.45592 h 0.0900071 v 0.45172 q 0,0.0715 -0.0143002,0.12534 -0.0143002,0.053 -0.053836,0.0824 -0.0386946,0.0294 -0.11271842,0.0294 z"
               style="font-size:0.841188px;fill:#ffffff;stroke:#ffffff;stroke-width:0.0225658;stroke-miterlimit:4;stroke-dasharray:none;stroke-opacity:1;fill-opacity:1"
               id="path52" />
            <path
               d="m -0.00186503,-840.53931 v -0.68136 h 0.09505424 v 0.61323 h 0.17412592 v 0.0681 z"
               style="font-size:0.841188px;fill:#ffffff;stroke:#ffffff;stroke-width:0.0225658;stroke-miterlimit:4;stroke-dasharray:none;stroke-opacity:1;fill-opacity:1"
               id="path54" />
            <path
               d="m 0.38844457,-840.53931 v -0.6107 H 0.27320182 v -0.0707 h 0.32217501 v 0.0707 H 0.48349882 v 0.6107 z"
               style="font-size:0.841188px;fill:#ffffff;stroke:#ffffff;stroke-width:0.0225658;stroke-miterlimit:4;stroke-dasharray:none;stroke-opacity:1;fill-opacity:1"
               id="path56" />
          </g>
          <g
             aria-label="D E S I G N"
             transform="rotate(180,0.00735763,0.07576537)"
             id="text44"
             style="font-style:normal;font-variant:normal;font-weight:200;font-stretch:normal;font-size:0.630891px;line-height:1.25;font-family:Oswald;-inkscape-font-specification:'Oswald Ultra-Light';fill:#ffffff;stroke:#ffffff;stroke-width:0.0225658;stroke-miterlimit:4;stroke-dasharray:none;stroke-opacity:1;fill-opacity:1">
            <path
               d="m -1.6760968,-839.81805 v -0.51103 h 0.1116678 q 0.051102,0 0.079492,0.0196 0.02839,0.0196 0.039746,0.053 0.011356,0.0334 0.011356,0.0744 v 0.21198 q 0,0.0435 -0.011356,0.0782 -0.011356,0.0341 -0.039115,0.0543 -0.027128,0.0196 -0.076969,0.0196 z m 0.034068,-0.0271 h 0.078861 q 0.041639,0 0.061827,-0.0177 0.020189,-0.0177 0.026497,-0.0467 0.00631,-0.0297 0.00631,-0.0643 v -0.20567 q 0,-0.0372 -0.00757,-0.0644 -0.00757,-0.0277 -0.02839,-0.0423 -0.020819,-0.0151 -0.059935,-0.0151 h -0.0776 z"
               style="font-style:normal;font-variant:normal;font-weight:200;font-stretch:normal;font-family:Oswald;-inkscape-font-specification:'Oswald Ultra-Light';fill:#ffffff;stroke:#ffffff;stroke-width:0.0225658;stroke-miterlimit:4;stroke-dasharray:none;stroke-opacity:1;fill-opacity:1"
               id="path59" />
            <path
               d="m -1.2313202,-839.81805 v -0.51103 h 0.1766495 v 0.0278 h -0.1419505 v 0.20504 h 0.1167148 v 0.0265 h -0.1167148 v 0.2246 h 0.1438432 v 0.0271 z"
               style="font-style:normal;font-variant:normal;font-weight:200;font-stretch:normal;font-family:Oswald;-inkscape-font-specification:'Oswald Ultra-Light';fill:#ffffff;stroke:#ffffff;stroke-width:0.0225658;stroke-miterlimit:4;stroke-dasharray:none;stroke-opacity:1;fill-opacity:1"
               id="path61" />
            <path
               d="m -0.76130712,-839.81175 q -0.040377,0 -0.0668745,-0.0164 -0.0258665,-0.0164 -0.0397461,-0.046 -0.0132487,-0.0297 -0.0164032,-0.07 l 0.0296519,-0.009 q 0.004416,0.0334 0.0132487,0.0593 0.009463,0.0259 0.0283901,0.0404 0.0189267,0.0139 0.052364,0.0139 0.0378535,0 0.0593038,-0.0189 0.0220812,-0.0189 0.0220812,-0.0631 0,-0.0334 -0.0176649,-0.0599 -0.0170341,-0.0271 -0.0485786,-0.058 l -0.0933719,-0.0927 q -0.023343,-0.024 -0.0340681,-0.048 -0.0107252,-0.024 -0.0107252,-0.0492 0,-0.0505 0.0309137,-0.0776 0.0315446,-0.0271 0.0813849,-0.0271 0.0258665,0 0.0466859,0.007 0.0208194,0.006 0.0359608,0.0214 0.0157723,0.0145 0.0246048,0.0391 0.008832,0.0246 0.011356,0.0606 l -0.029021,0.007 q -0.002524,-0.036 -0.0119869,-0.0599 -0.009463,-0.024 -0.0277592,-0.0353 -0.0182958,-0.012 -0.0492095,-0.012 -0.034699,0 -0.058042,0.0177 -0.023343,0.0177 -0.023343,0.0568 0,0.0196 0.007571,0.0378 0.008202,0.0183 0.0296519,0.0398 l 0.0921101,0.0908 q 0.0309137,0.0303 0.0529948,0.065 0.0227121,0.0341 0.0227121,0.0751 0,0.0385 -0.0145105,0.0637 -0.0145105,0.0246 -0.040377,0.0366 -0.0258665,0.012 -0.0593038,0.012 z"
               style="font-style:normal;font-variant:normal;font-weight:200;font-stretch:normal;font-family:Oswald;-inkscape-font-specification:'Oswald Ultra-Light';fill:#ffffff;stroke:#ffffff;stroke-width:0.0225658;stroke-miterlimit:4;stroke-dasharray:none;stroke-opacity:1;fill-opacity:1"
               id="path63" />
            <path
               d="m -0.45848017,-839.81805 v -0.51103 h 0.0340681 v 0.51103 z"
               style="font-style:normal;font-variant:normal;font-weight:200;font-stretch:normal;font-family:Oswald;-inkscape-font-specification:'Oswald Ultra-Light';fill:#ffffff;stroke:#ffffff;stroke-width:0.0225658;stroke-miterlimit:4;stroke-dasharray:none;stroke-opacity:1;fill-opacity:1"
               id="path65" />
            <path
               d="m -0.09824229,-839.81111 q -0.04857861,0 -0.07507603,-0.0196 -0.0264974,-0.0202 -0.0372226,-0.0555 -0.0100943,-0.0353 -0.0100943,-0.0801 v -0.21703 q 0,-0.0448 0.0100943,-0.0789 0.0107252,-0.0341 0.0378535,-0.053 0.0271283,-0.0195 0.07633782,-0.0195 0.04479326,0 0.0700289,0.0177 0.0258665324,0.0177 0.03659168,0.0505 0.01135604,0.0328 0.01135604,0.0776 v 0.0177 h -0.03280633 v -0.0196 q 0,-0.0378 -0.0075707,-0.0631 -0.0075707,-0.0259 -0.02586653,-0.0391 -0.01829584,-0.0132 -0.05173306,-0.0132 -0.03722257,0 -0.0567802,0.0158 -0.0195576,0.0151 -0.0264974,0.0429 -0.006309,0.0271 -0.006309,0.0631 v 0.2227 q 0,0.0372 0.007571,0.065 0.007571,0.0271 0.0271283,0.0423 0.0195576,0.0151 0.05551841,0.0151 0.03406811,0 0.05236395,-0.0145 0.01892673,-0.0145 0.02586653,-0.0416 0.0075707,-0.0271 0.0075707,-0.0643 v -0.0751 h -0.08138495 v -0.0265 H 0.0222579 v 0.24353 H 1.7671347e-4 l -0.005047123,-0.0574 q -0.00946337,0.0297 -0.03154456,0.0473 -0.02145029,0.017 -0.06182732,0.017 z"
               style="font-style:normal;font-variant:normal;font-weight:200;font-stretch:normal;font-family:Oswald;-inkscape-font-specification:'Oswald Ultra-Light';fill:#ffffff;stroke:#ffffff;stroke-width:0.0225658;stroke-miterlimit:4;stroke-dasharray:none;stroke-opacity:1;fill-opacity:1"
               id="path67" />
            <path
               d="m 0.23108128,-839.81805 v -0.51103 h 0.0271283 l 0.17349503,0.43153 v -0.43153 h 0.0302828 v 0.51103 h -0.0271283 l -0.17349504,-0.43216 v 0.43216 z"
               style="font-style:normal;font-variant:normal;font-weight:200;font-stretch:normal;font-family:Oswald;-inkscape-font-specification:'Oswald Ultra-Light';fill:#ffffff;stroke:#ffffff;stroke-width:0.0225658;stroke-miterlimit:4;stroke-dasharray:none;stroke-opacity:1;fill-opacity:1"
               id="path69" />
          </g>
        </g>
      </g>
    </g>
  </g>
</svg>
