<?xml version="1.0" encoding="UTF-8" standalone="no"?>
<svg
   xmlns:dc="http://purl.org/dc/elements/1.1/"
   xmlns:cc="http://creativecommons.org/ns#"
   xmlns:rdf="http://www.w3.org/1999/02/22-rdf-syntax-ns#"
   xmlns:svg="http://www.w3.org/2000/svg"
   xmlns="http://www.w3.org/2000/svg"
   xmlns:sodipodi="http://sodipodi.sourceforge.net/DTD/sodipodi-0.dtd"
   xmlns:inkscape="http://www.inkscape.org/namespaces/inkscape"
   width="274.24619pt"
   height="295.5018pt"
   viewBox="0 0 274.24618 295.5018"
   fill-rule="evenodd"
   version="1.1"
   id="svg134"
   sodipodi:docname="UtbultDesign.svg"
   inkscape:version="1.0.1 (3bc2e813f5, 2020-09-07)">
  <metadata
     id="metadata140">
    <rdf:RDF>
      <cc:Work
         rdf:about="">
        <dc:format>image/svg+xml</dc:format>
        <dc:type
           rdf:resource="http://purl.org/dc/dcmitype/StillImage" />
        <dc:title></dc:title>
      </cc:Work>
    </rdf:RDF>
  </metadata>
  <defs
     id="defs138" />
  <sodipodi:namedview
     pagecolor="#ffffff"
     bordercolor="#666666"
     borderopacity="1"
     objecttolerance="10"
     gridtolerance="10"
     guidetolerance="10"
     inkscape:pageopacity="0"
     inkscape:pageshadow="2"
     inkscape:window-width="1366"
     inkscape:window-height="703"
     id="namedview136"
     showgrid="false"
     inkscape:zoom="1.1824083"
     inkscape:cx="220.24271"
     inkscape:cy="144.24346"
     inkscape:window-x="0"
     inkscape:window-y="0"
     inkscape:window-maximized="0"
     inkscape:current-layer="g935"
     showguides="true"
     inkscape:guide-bbox="true"
     inkscape:document-rotation="0">
    <sodipodi:guide
       position="137.22162,391.51794"
       orientation="1,0"
       id="guide1963"
       inkscape:locked="false" />
  </sodipodi:namedview>
  <g
     inkscape:groupmode="layer"
     id="layer4"
     inkscape:label="Back"
     transform="translate(-162.306,-252.54632)" />
  <g
     inkscape:groupmode="layer"
     id="layer3"
     inkscape:label="Logo"
     style="display:inline"
     transform="translate(-162.306,-252.54632)">
    <g
       id="g132"
       transform="matrix(-47.551777,0,0,-47.551777,311.39507,40584.429)"
       style="fill:none;stroke:#000000;stroke-width:0.0473168;stroke-miterlimit:4;stroke-dasharray:none;stroke-opacity:1">
      <g
         id="g935"
         style="fill:#000000">
        <g
           id="g949"
           style="fill:none">
          <path
             style="fill:none;stroke:#000000;stroke-width:0.0473168;stroke-linecap:round;stroke-linejoin:round;stroke-miterlimit:4;stroke-dasharray:none;stroke-opacity:1"
             d="m 3.1116413,846.80507 -7.75e-5,-1.96648 c 7.75e-5,-1.58052 -1.2812925,-2.86152 -2.85992253,-2.86152 -1.57862997,0 -2.86089517,1.28081 -2.86121927,2.85625 l -9.258e-4,1.15458 0.2016057,0.001 -2.296e-4,-1.15207 c 3.098e-4,-1.47187 1.192529,-2.65973 2.66076897,-2.65973 1.46824003,0 2.66000003,1.192 2.66001803,2.65807 l -3.88e-5,1.97135 0.1999791,0.001"
             id="path18"
             inkscape:connector-curvature="0"
             sodipodi:nodetypes="ccsccccsccc" />
          <path
             style="fill:none;stroke:#000000;stroke-width:0.0473168;stroke-linecap:round;stroke-linejoin:round;stroke-miterlimit:4;stroke-dasharray:none;stroke-opacity:1"
             d="m 3.1130779,848.14096 -0.2009256,0.002 -4.887e-4,-0.44508 0.1998413,1.1e-4 z"
             id="path20"
             inkscape:connector-curvature="0"
             sodipodi:nodetypes="ccccc" />
          <path
             style="fill:none;stroke:#000000;stroke-width:0.0473168;stroke-linecap:round;stroke-linejoin:round;stroke-miterlimit:4;stroke-dasharray:none;stroke-opacity:1"
             d="m 2.791713,847.54497 -0.2000358,-4.5e-4 -3.359e-4,-0.47113 0.2004118,6e-5 z"
             id="path28"
             inkscape:connector-curvature="0"
             sodipodi:nodetypes="ccccc" />
          <path
             style="fill:none;stroke:#000000;stroke-width:0.0473168;stroke-linecap:round;stroke-linejoin:round;stroke-miterlimit:4;stroke-dasharray:none;stroke-opacity:1"
             d="m 2.2716625,845.8626 0.1999788,4.7e-4 1.975e-4,2.27477 -0.1998018,-3.6e-4 z"
             id="path36"
             inkscape:connector-curvature="0"
             sodipodi:nodetypes="ccccc" />
          <path
             style="fill:none;stroke:#000000;stroke-width:0.0473168;stroke-linecap:round;stroke-linejoin:round;stroke-miterlimit:4;stroke-dasharray:none;stroke-opacity:1"
             d="m 2.1513631,846.80566 6.477e-4,0.35112 -0.2007474,9.9e-4 9.97e-5,-0.35211 z"
             id="path44"
             inkscape:connector-curvature="0"
             sodipodi:nodetypes="ccccc" />
          <path
             style="fill:none;stroke:#000000;stroke-width:0.0473168;stroke-linecap:round;stroke-linejoin:round;stroke-miterlimit:4;stroke-dasharray:none;stroke-opacity:1"
             d="m 1.9518467,844.83173 c 2.911e-4,-0.94284 -0.7619422,-1.69616 -1.7002912,-1.69616 -0.938349,0 -1.7,0.761 -1.7000066,1.70148 l -1.23e-5,0.59085 -0.2001488,-5.2e-4 2.83e-4,-0.59043 c -1.153e-4,-1.05038 0.85114473,-1.90138 1.8998847,-1.90138 1.04874,0 1.9002367,0.8446 1.9001183,1.8968 l -7.03e-5,1.45461 h -0.2 z"
             id="path62"
             inkscape:connector-curvature="0"
             sodipodi:nodetypes="csccccscccc" />
          <path
             style="fill:none;stroke:#000000;stroke-width:0.0473168;stroke-linecap:round;stroke-linejoin:round;stroke-miterlimit:4;stroke-dasharray:none;stroke-opacity:1"
             d="m -1.968334,844.83607 c 2.47e-5,-1.227 0.9946053,-2.219 2.21997527,-2.219 1.22537003,0 2.22000003,0.994 2.21994133,2.2207 l 2.14e-5,0.59695 -0.2000036,-4.4e-4 4.63e-5,-0.59654 c -5.4e-6,-1.11567 -0.9050254,-2.02067 -2.02000543,-2.02067 -1.11497997,0 -2.01979957,0.90276 -2.01989977,2.01888 l 1.551e-4,1.56285 -0.2001557,1.6e-4 z"
             id="path74"
             inkscape:connector-curvature="0"
             sodipodi:nodetypes="csccccscccc" />
          <path
             style="fill:none;stroke:#000000;stroke-width:0.0473168;stroke-linecap:round;stroke-linejoin:round;stroke-miterlimit:4;stroke-dasharray:none;stroke-opacity:1"
             d="m 2.791442,844.84336 1.148e-4,1.44782 -0.2011172,1.1e-4 0.00103,-1.45197 c 1.679e-4,-1.29417 -1.0482221,-2.34217 -2.33983213,-2.34217 -1.29160997,0 -2.34015677,1.04443 -2.34007837,2.33821 l 2.455e-4,2.57263 -0.2000594,10e-5 -1.517e-4,-2.56851 c 4.4e-5,-1.40443 1.138044,-2.54243 2.54004397,-2.54243 1.40200003,0 2.54000003,1.138 2.54000003,2.54"
             id="path84"
             inkscape:connector-curvature="0"
             sodipodi:nodetypes="ccccsccccsc" />
          <path
             style="fill:none;stroke:#000000;stroke-width:0.0473168;stroke-linecap:round;stroke-linejoin:round;stroke-miterlimit:4;stroke-dasharray:none;stroke-opacity:1"
             d="m -1.4484637,847.2348 -0.1999406,2.7e-4 1.524e-4,-1.21699 0.1999074,6e-5 z"
             id="path100"
             inkscape:connector-curvature="0"
             sodipodi:nodetypes="ccccc" />
          <path
             style="fill:none;stroke:#000000;stroke-width:0.0473168;stroke-linecap:round;stroke-linejoin:round;stroke-miterlimit:4;stroke-dasharray:none;stroke-opacity:1"
             d="m -1.9686835,847.06499 0.2001698,-0.001 -4.87e-5,1.08039 -0.1998471,-2e-4 z"
             id="path108"
             inkscape:connector-curvature="0"
             sodipodi:nodetypes="ccccc" />
          <path
             style="fill:none;stroke:#000000;stroke-width:0.0473168;stroke-linecap:round;stroke-linejoin:round;stroke-miterlimit:4;stroke-dasharray:none;stroke-opacity:1"
             d="m -2.4071287,848.13888 -0.2020818,7.4e-4 8.529e-4,-0.33048 0.1998735,-3.7e-4 z"
             id="path122"
             inkscape:connector-curvature="0"
             sodipodi:nodetypes="ccccc" />
          <path
             style="fill:none;stroke:#000000;stroke-width:0.0473168;stroke-linecap:round;stroke-linejoin:round;stroke-miterlimit:4;stroke-dasharray:none;stroke-opacity:1"
             d="m -2.6095961,847.10563 0.00134,-0.55168 0.1996538,5.6e-4 0.00112,0.55158 z"
             id="path128"
             inkscape:connector-curvature="0"
             sodipodi:nodetypes="ccccc" />
        </g>
      </g>
    </g>
  </g>
</svg>
