<?xml version="1.0" encoding="UTF-8" standalone="no"?>
<svg
   xmlns:dc="http://purl.org/dc/elements/1.1/"
   xmlns:cc="http://creativecommons.org/ns#"
   xmlns:rdf="http://www.w3.org/1999/02/22-rdf-syntax-ns#"
   xmlns:svg="http://www.w3.org/2000/svg"
   xmlns="http://www.w3.org/2000/svg"
   xmlns:sodipodi="http://sodipodi.sourceforge.net/DTD/sodipodi-0.dtd"
   xmlns:inkscape="http://www.inkscape.org/namespaces/inkscape"
   width="42.606743mm"
   height="41.555038mm"
   viewBox="0 0 42.606743 41.555038"
   version="1.1"
   id="svg1034"
   inkscape:version="1.0.1 (3bc2e813f5, 2020-09-07)"
   sodipodi:docname="github_logo.svg">
  <defs
     id="defs1028" />
  <sodipodi:namedview
     id="base"
     pagecolor="#ffffff"
     bordercolor="#666666"
     borderopacity="1.0"
     inkscape:pageopacity="0.0"
     inkscape:pageshadow="2"
     inkscape:zoom="0.49497475"
     inkscape:cx="80.838682"
     inkscape:cy="117.26163"
     inkscape:document-units="mm"
     inkscape:current-layer="layer1"
     inkscape:document-rotation="0"
     showgrid="false"
     inkscape:window-width="1358"
     inkscape:window-height="703"
     inkscape:window-x="0"
     inkscape:window-y="0"
     inkscape:window-maximized="0" />
  <metadata
     id="metadata1031">
    <rdf:RDF>
      <cc:Work
         rdf:about="">
        <dc:format>image/svg+xml</dc:format>
        <dc:type
           rdf:resource="http://purl.org/dc/dcmitype/StillImage" />
        <dc:title></dc:title>
      </cc:Work>
    </rdf:RDF>
  </metadata>
  <g
     inkscape:label="Layer 1"
     inkscape:groupmode="layer"
     id="layer1"
     transform="translate(-74.702579,-112.2701)">
    <path
       d="m 96.006123,112.2701 c -11.76408,0 -21.303544,9.5377 -21.303544,21.30355 0,9.41246 6.104114,17.39794 14.568663,20.21487 1.064684,0.1972 1.455561,-0.46214 1.455561,-1.02482 0,-0.508 -0.01976,-2.18616 -0.02893,-3.96628 -5.926667,1.2887 -7.177264,-2.51354 -7.177264,-2.51354 -0.96908,-2.46239 -2.365375,-3.11715 -2.365375,-3.11715 -1.932869,-1.32221 0.145698,-1.29504 0.145698,-1.29504 2.139244,0.14993 3.265663,2.19568 3.265663,2.19568 1.900061,3.2565 4.983692,2.31493 6.199364,1.7706 0.191205,-1.3769 0.743303,-2.31705 1.35255,-2.84868 -4.731808,-0.53869 -9.705975,-2.36538 -9.705975,-10.5283 0,-2.32587 0.832203,-4.22628 2.194984,-5.71818 -0.221192,-0.53693 -0.950384,-2.70333 0.206374,-5.63774 0,0 1.788936,-0.57256 5.859992,2.18369 1.69933,-0.47201 3.52178,-0.70873 5.332236,-0.71684 1.810455,0.008 3.634316,0.24483 5.33682,0.71684 4.06612,-2.75625 5.85259,-2.18369 5.85259,-2.18369 1.15958,2.93441 0.43003,5.10081 0.20884,5.63774 1.36596,1.4919 2.19251,3.39231 2.19251,5.71818 0,8.18232 -4.98369,9.98396 -9.727491,10.51136 0.764121,0.66111 1.444981,1.95757 1.444981,3.94512 0,2.85044 -0.0247,5.14455 -0.0247,5.84623 0,0.56691 0.38347,1.2312 1.46332,1.022 8.45997,-2.82011 14.55633,-10.80276 14.55633,-20.21205 -2e-5,-11.76585 -9.53807,-21.30355 -21.303207,-21.30355"
       style="fill:#1b1817;fill-opacity:1;fill-rule:evenodd;stroke:none;stroke-width:0.0352777"
       id="path18" />
  </g>
</svg>
